<?xml version="1.0" encoding="iso-8859-1"?>
<!-- Generator: Adobe Illustrator 19.0.0, SVG Export Plug-In . SVG Version: 6.00 Build 0)  -->
<svg version="1.1" id="Capa_1" xmlns="http://www.w3.org/2000/svg" xmlns:xlink="http://www.w3.org/1999/xlink" x="0px" y="0px"
	 viewBox="0 0 504.116 504.116" style="enable-background:new 0 0 504.116 504.116;" xml:space="preserve">
<path style="fill:#617F87;" d="M410.122,36.322L359.631,7.394c-2.209-1.611-4.577-2.97-7.093-4.064l-0.744-0.421l-0.032,0.063
	c-13.584-5.522-31.13-3.529-50.271,7.519l-155.518,89.777c-42.76,24.686-77.745,85.287-77.745,134.668v179.558
	c0,24.08,8.361,41.157,21.847,49.534l-0.13,0.236l56.115,31.795l31.555-54.942l123.876-71.511
	c42.752-24.69,77.745-85.291,77.745-134.668V90.089L410.122,36.322z"/>
<path style="fill:#4D6770;" d="M410.122,36.322l-54.047-12.678c-2.209-1.607-13.245-1.568-15.762-2.67l-4.009-1.599l-7.211-1.343
	c-13.584-5.522-8.46-18.593-27.601-7.546l-155.518,89.781c-42.76,24.686-77.745,85.287-77.745,134.668v179.558
	c0,24.08,8.361,41.157,21.847,49.534l-0.13,0.236l56.115,31.795l31.555-54.942l123.876-71.511
	c42.752-24.69,77.745-85.291,77.745-134.668V90.089L410.122,36.322z"/>
<path style="fill:#41535B;" d="M71.19,209.066c-1.887,8.791-2.962,17.495-2.962,25.868v179.558c0,24.08,8.361,41.157,21.847,49.534
	l-0.13,0.236l56.115,31.795l31.555-54.942l123.876-71.511c7.263-4.194,14.285-9.492,20.961-15.537L71.19,209.066z"/>
<path style="fill:#819AA5;" d="M199.423,131.258c-42.76,24.686-77.753,85.291-77.753,134.668v179.562
	c0,49.377,34.993,69.577,77.753,44.883l155.506-89.777c42.76-24.686,77.753-85.287,77.753-134.668V86.368
	c0-49.376-34.993-69.573-77.753-44.883L199.423,131.258z"/>
<path style="fill:#6F8693;" d="M432.682,86.368c0-49.376-34.993-69.573-77.753-44.883l-155.506,89.773
	c-42.76,24.686-77.753,85.291-77.753,134.668v179.562c0,49.377,34.993,69.577,77.753,44.883"/>
<path style="fill:#92AEB7;" d="M164.882,504.116h-0.008c-28.192,0-46.407-23.012-46.407-58.628V265.926
	c0-50.523,35.592-112.183,79.344-137.44l155.514-89.781c12.607-7.278,24.769-10.965,36.147-10.965
	c28.191,0,46.415,23.016,46.415,58.628V265.93c0,50.527-35.6,112.183-79.352,137.444l-155.514,89.777
	C188.415,500.426,176.26,504.116,164.882,504.116z M389.477,34.151c-10.24,0-21.323,3.399-32.937,10.098l-155.518,89.785
	c-41.984,24.241-76.146,83.409-76.146,131.891v179.562c0,32.209,15.325,52.216,39.999,52.216h0.008
	c10.24,0,21.315-3.399,32.929-10.098l155.514-89.785c41.984-24.237,76.146-83.409,76.146-131.891V86.368
	C429.476,54.159,414.151,34.151,389.477,34.151z"/>
<path style="fill:#EDF3F9;" d="M310.085,145.649c-4.458-4.576-11.327-5.837-17.12-3.163c-3.545,1.646-6.896,4.269-9.956,7.798
	c-0.193,0.224-0.374,0.445-0.551,0.677l-56.556,93.101c-2.032,2.631-3.131,5.864-3.131,9.188v104.826
	c0,5.963,3.521,11.362,8.972,13.773l60.794,4.777h0.004c6.294,0,12.154-2.395,16.502-6.747c3.423-3.434,7.507-9.649,7.495-19.787
	l0.012-185.931C316.541,156.279,314.363,150.053,310.085,145.649z"/>
<g>
	<path style="fill:#D3DEE5;" d="M316.552,164.168c-0.012-7.889-2.19-14.115-6.467-18.515c-4.458-4.576-11.327-5.837-17.12-3.163
		c-3.545,1.646-6.896,4.269-9.956,7.798c-0.193,0.224-0.374,0.445-0.551,0.677l-56.556,93.101c-2.032,2.631-3.131,5.864-3.131,9.188
		v104.826c0,5.963,3.521,11.362,8.972,13.773l34.544,2.71l50.259-87.048L316.552,164.168z"/>
	<path style="fill:#D3DEE5;" d="M187.15,260.507c-8.928,5.155-16.23,17.81-16.23,28.113v99.49c0,10.315,7.302,14.529,16.23,9.374
		l10.823-6.25c8.928-5.155,16.23-17.806,16.23-28.109v-99.497c0-10.307-7.302-14.529-16.23-9.37L187.15,260.507z"/>
	<path style="fill:#D3DEE5;" d="M345.031,213.17c-0.803,0-1.619-0.205-2.363-0.634c-2.261-1.308-3.037-4.198-1.729-6.463
		l32.772-56.761c1.304-2.261,4.194-3.037,6.463-1.729c2.261,1.308,3.037,4.198,1.729,6.463l-32.772,56.761
		C348.257,212.32,346.666,213.17,345.031,213.17z"/>
	<path style="fill:#D3DEE5;" d="M345.039,254.827c-1.634,0-3.222-0.847-4.1-2.363c-1.308-2.265-0.532-5.159,1.729-6.463
		l32.772-18.924c2.253-1.304,5.151-0.532,6.463,1.729c1.308,2.265,0.532,5.159-1.729,6.467l-32.772,18.92
		C346.658,254.627,345.843,254.827,345.039,254.827z"/>
	<path style="fill:#D3DEE5;" d="M377.807,307.768c-0.803,0-1.619-0.205-2.363-0.634l-32.772-18.92
		c-2.261-1.308-3.037-4.194-1.729-6.463c1.308-2.269,4.194-3.04,6.463-1.729l32.772,18.92c2.261,1.308,3.037,4.198,1.729,6.463
		C381.029,306.921,379.442,307.768,377.807,307.768z"/>
</g>
<g>
</g>
<g>
</g>
<g>
</g>
<g>
</g>
<g>
</g>
<g>
</g>
<g>
</g>
<g>
</g>
<g>
</g>
<g>
</g>
<g>
</g>
<g>
</g>
<g>
</g>
<g>
</g>
<g>
</g>
</svg>
