<?xml version="1.0" encoding="iso-8859-1"?>
<!-- Generator: Adobe Illustrator 19.0.0, SVG Export Plug-In . SVG Version: 6.00 Build 0)  -->
<svg version="1.1" id="Capa_1" xmlns="http://www.w3.org/2000/svg" xmlns:xlink="http://www.w3.org/1999/xlink" x="0px" y="0px"
	 viewBox="0 0 504.116 504.116" style="enable-background:new 0 0 504.116 504.116;" xml:space="preserve">
<path style="fill:#3B66ED;" d="M410.118,36.322L359.627,7.394c-2.209-1.611-4.576-2.97-7.093-4.064l-0.744-0.421l-0.032,0.063
	c-13.584-5.522-31.13-3.529-50.271,7.519l-155.514,89.777c-42.76,24.686-77.745,85.287-77.745,134.668v179.558
	c0,24.08,8.361,41.157,21.847,49.534l-0.13,0.236l56.115,31.795l31.555-54.942l123.876-71.511
	c42.752-24.69,77.745-85.291,77.745-134.668V90.089L410.118,36.322z"/>
<path style="fill:#2A4BD8;" d="M410.118,36.322l-54.044-12.678c-2.209-1.607-13.245-1.568-15.762-2.67l-4.009-1.599l-7.215-1.343
	c-13.584-5.522-8.46-18.593-27.601-7.546l-155.514,89.781c-42.76,24.686-77.745,85.287-77.745,134.668v179.558
	c0,24.08,8.361,41.157,21.847,49.534l-0.13,0.236l56.115,31.795l31.555-54.942l123.876-71.511
	c42.752-24.69,77.745-85.291,77.745-134.668V90.089L410.118,36.322z"/>
<path style="fill:#1A40BA;" d="M71.19,209.066c-1.887,8.791-2.962,17.495-2.962,25.868v179.558c0,24.08,8.361,41.157,21.847,49.534
	l-0.13,0.236l56.115,31.795l31.555-54.942l123.876-71.511c7.263-4.194,14.285-9.492,20.96-15.537L71.19,209.066z"/>
<path style="fill:#607EFC;" d="M199.419,131.258c-42.76,24.686-77.753,85.291-77.753,134.668v179.562
	c0,49.377,34.993,69.577,77.753,44.883l155.506-89.777c42.76-24.686,77.753-85.287,77.753-134.668V86.368
	c0-49.376-34.993-69.573-77.753-44.883L199.419,131.258z"/>
<path style="fill:#5069FF;" d="M432.682,86.368c0-49.376-34.993-69.573-77.753-44.883l-155.51,89.773
	c-42.76,24.686-77.753,85.291-77.753,134.668v179.562c0,49.377,34.993,69.577,77.753,44.883"/>
<path style="fill:#7D9CFF;" d="M164.882,504.116h-0.008c-28.192,0-46.407-23.012-46.407-58.628V265.926
	c0-50.523,35.592-112.183,79.344-137.444l155.514-89.777c12.607-7.278,24.769-10.965,36.147-10.965
	c28.191,0,46.415,23.016,46.415,58.628V265.93c0,50.527-35.6,112.183-79.352,137.444l-155.514,89.777
	C188.411,500.426,176.257,504.116,164.882,504.116z M389.473,34.151c-10.24,0-21.323,3.399-32.937,10.098l-155.514,89.785
	c-41.984,24.241-76.146,83.409-76.146,131.891v179.562c0,32.209,15.325,52.216,39.999,52.216h0.008
	c10.24,0,21.315-3.399,32.929-10.098l155.514-89.785c41.984-24.237,76.146-83.409,76.146-131.891V86.368
	C429.472,54.159,414.151,34.151,389.473,34.151z"/>
<path style="fill:#39A6FF;" d="M208.981,318.268c-11.063,6.388-20.122,22.067-20.122,34.844v46.454
	c0,12.776,9.062,18.003,20.122,11.615l40.231-23.225c11.063-6.388,20.114-22.067,20.114-34.844v-46.454
	c0-12.776-9.055-17.999-20.114-11.615L208.981,318.268z"/>
<path style="fill:#FFCB27;" d="M312.941,258.344c-11.063,6.384-20.122,22.067-20.122,34.84v46.458
	c0,12.776,9.062,18.003,20.122,11.615l40.231-23.225c11.063-6.388,20.114-22.071,20.114-34.848v-46.458
	c0-12.776-9.055-17.999-20.114-11.615L312.941,258.344z"/>
<path style="fill:#FFAF22;" d="M343.614,240.637l-30.669,17.707c-11.063,6.384-20.122,22.067-20.122,34.84v35.419L343.614,240.637z"
	/>
<path style="fill:#ED185F;" d="M208.981,203.828c-11.063,6.388-20.122,22.071-20.122,34.844v46.458
	c0,12.776,9.062,17.999,20.122,11.615l40.231-23.229c11.063-6.384,20.114-22.067,20.114-34.844v-46.454
	c0-12.772-9.055-17.999-20.114-11.611L208.981,203.828z"/>
<path style="fill:#87D324;" d="M312.941,143.901c-11.063,6.388-20.122,22.067-20.122,34.844v46.454
	c0,12.78,9.062,18.003,20.122,11.615l40.231-23.225c11.063-6.388,20.114-22.067,20.114-34.844V132.29
	c0-12.776-9.055-17.999-20.114-11.615L312.941,143.901z"/>
<g>
</g>
<g>
</g>
<g>
</g>
<g>
</g>
<g>
</g>
<g>
</g>
<g>
</g>
<g>
</g>
<g>
</g>
<g>
</g>
<g>
</g>
<g>
</g>
<g>
</g>
<g>
</g>
<g>
</g>
</svg>
