<?xml version="1.0" encoding="iso-8859-1"?>
<!-- Generator: Adobe Illustrator 19.0.0, SVG Export Plug-In . SVG Version: 6.00 Build 0)  -->
<svg version="1.1" id="Capa_1" xmlns="http://www.w3.org/2000/svg" xmlns:xlink="http://www.w3.org/1999/xlink" x="0px" y="0px"
	 viewBox="0 0 504.116 504.116" style="enable-background:new 0 0 504.116 504.116;" xml:space="preserve">
<path style="fill:#6562CC;" d="M410.118,36.322L359.627,7.394c-2.209-1.611-4.576-2.97-7.093-4.064l-0.744-0.421l-0.032,0.063
	c-13.584-5.522-31.13-3.529-50.271,7.519l-155.514,89.777c-42.76,24.686-77.745,85.287-77.745,134.668v179.558
	c0,24.08,8.361,41.157,21.847,49.534l-0.13,0.236l56.115,31.795l31.555-54.942l123.876-71.511
	c42.752-24.69,77.745-85.291,77.745-134.668V90.089L410.118,36.322z"/>
<path style="fill:#5C55B7;" d="M410.118,36.322l-54.044-12.678c-2.209-1.607-13.245-1.568-15.762-2.67l-4.009-1.599l-7.215-1.343
	c-13.584-5.522-8.46-18.593-27.601-7.546l-155.514,89.781c-42.76,24.686-77.745,85.287-77.745,134.668v179.558
	c0,24.08,8.361,41.157,21.847,49.534l-0.13,0.236l56.115,31.795l31.555-54.942l123.876-71.511
	c42.752-24.69,77.745-85.291,77.745-134.668V90.089L410.118,36.322z"/>
<path style="fill:#4C40A0;" d="M71.19,209.066c-1.887,8.791-2.962,17.495-2.962,25.868v179.558c0,24.08,8.361,41.157,21.847,49.534
	l-0.13,0.236l56.115,31.795l31.555-54.942l123.876-71.511c7.263-4.194,14.285-9.492,20.96-15.537L71.19,209.066z"/>
<path style="fill:#875CFF;" d="M199.419,131.258c-42.76,24.686-77.753,85.291-77.753,134.668v179.562
	c0,49.377,34.993,69.577,77.753,44.883l155.506-89.777c42.76-24.686,77.753-85.287,77.753-134.668V86.368
	c0-49.376-34.993-69.573-77.753-44.883L199.419,131.258z"/>
<g>
	<path style="fill:#7255FF;" d="M432.682,86.368c0-49.376-34.993-69.573-77.753-44.883l-155.51,89.773
		c-42.76,24.686-77.753,85.291-77.753,134.668v179.562c0,49.377,34.993,69.577,77.753,44.883"/>
	<path style="opacity:0.3;fill:#7255FF;enable-background:new    ;" d="M177.174,302.55v196.88
		c7.054-1.623,14.521-4.596,22.244-9.059l97.217-56.123V302.55l-73.787,36.482L177.174,302.55z"/>
</g>
<path style="fill:#BC5FFF;" d="M164.882,504.116h-0.008c-28.192,0-46.407-23.012-46.407-58.628V265.926
	c0-50.523,35.592-112.183,79.344-137.44l155.514-89.781c12.607-7.278,24.769-10.965,36.147-10.965
	c28.191,0,46.415,23.016,46.415,58.628V265.93c0,50.527-35.6,112.183-79.352,137.444l-155.514,89.777
	C188.411,500.426,176.257,504.116,164.882,504.116z M389.473,34.155c-10.24,0-21.323,3.395-32.937,10.094l-155.514,89.785
	c-41.984,24.241-76.146,83.409-76.146,131.891v179.562c0,32.209,15.325,52.216,39.999,52.216h0.008
	c10.24,0,21.315-3.399,32.929-10.098l155.514-89.785c41.984-24.237,76.146-83.409,76.146-131.891V86.368
	C429.472,54.159,414.151,34.155,389.473,34.155z"/>
<g>
	<path style="fill:#FFFFFF;" d="M228.512,351.217L228.512,351.217c-31.429-0.004-52.555-25.651-52.555-63.827
		c0-49.695,35.033-110.368,78.076-135.255c13.127-7.574,25.978-11.418,38.207-11.418c31.445,0,52.571,25.663,52.571,63.85
		c0,49.699-35.025,110.36-78.068,135.215C253.612,347.365,240.749,351.217,228.512,351.217z M292.244,166.114
		c-7.605,0-16.423,2.777-25.502,8.015c-35.438,20.484-65.386,72.353-65.386,113.262c0,24.064,10.153,38.424,27.156,38.432
		c7.617,0,16.439-2.781,25.521-8.027c35.438-20.464,65.378-72.314,65.378-113.227C319.412,180.489,309.258,166.114,292.244,166.114z
		"/>
	<path style="fill:#FFFFFF;" d="M387.811,337.649c-1.04,0-2.091-0.256-3.06-0.819l-85.047-49.093
		c-2.938-1.701-3.938-5.451-2.245-8.385c1.694-2.942,5.439-3.954,8.385-2.249l85.047,49.101c2.938,1.694,3.946,5.447,2.245,8.381
		C391.998,336.551,389.934,337.649,387.811,337.649z"/>
	<path style="fill:#FFFFFF;" d="M387.807,343.793c-2.079,0-4.187-0.528-6.128-1.646l-42.524-24.548
		c-5.872-3.387-7.877-10.898-4.494-16.766c3.383-5.872,10.878-7.893,16.77-4.502l42.524,24.548
		c5.872,3.395,7.881,10.898,4.494,16.77C396.176,341.592,392.049,343.793,387.807,343.793z"/>
</g>
<g>
</g>
<g>
</g>
<g>
</g>
<g>
</g>
<g>
</g>
<g>
</g>
<g>
</g>
<g>
</g>
<g>
</g>
<g>
</g>
<g>
</g>
<g>
</g>
<g>
</g>
<g>
</g>
<g>
</g>
</svg>
