<svg id="Layer_1" enable-background="new 0 0 53 53" height="20" viewBox="0 0 53 53" width="20" xmlns="http://www.w3.org/2000/svg"><g id="_x31_62"><g><g><g><g><g><path d="m36.5113487 6.3832912-.0800171 28.0900288c0 .1199951-.0700073.2299805-.2299805.3200073l-18.2899799 10.5c-.1800537.1099854-.4800415.1099854-.6600342 0l-6.3900137-3.6900024c-.0899658-.0500488-.1300049-.1199951-.1300049-.1900024l.0700073-28.080019c0 .039978.0100098.0700073.0400391.0999756-.0700073-.0999756-.0300293-.2199707.0999756-.2999878l18.289978-10.5c.3099976-.1799927.8099976-.1799927 1.1199951 0 .1900024.1099854.2700195.2700195.2200317.4100342.0199585-.0300293.0199585-.0500488.0199585-.0800171l-.0099487 2.3499756 2.9299946 1.7000122 1.6499634-.9500122c.3099976-.1799927.8099976-.1799927 1.1199951 0 .1500235.0900268.2300406.2000121.2300406.3200072z" fill="#5ec363"/></g></g></g><g><g><g><path d="m42.2713585 17.9033108-.0599976 23.4799824c0 .1000366-.0700073.2000122-.2000122.2700195l-15.2999897 8.7799682c-.1500244.0900269-.4000244.0900269-.5499878 0l-5.3400269-3.0799561c-.0800171-.0500488-.1199951-.1100464-.1199951-.1600342l.0700073-23.4899921c0-.0599976.039978-.1199951.1099854-.1599731l15.2999897-8.7800293c.2600098-.1599731.6799927-.1599731.9400024 0 .1300049.0700073.1900024.1699829.1900024.2700195l-.0100098 1.9655437 2.4700317 1.4299927 1.3699951-.8055706c.2599487-.1499634.6699829-.1499634.9299927 0 .1300051.0800172.2000124.1799928.2000124.2800294z" fill="#df3260"/></g></g></g><g><g><g enable-background="new"><g><g><g><path d="m30.5882664 2.9597912-.0792465 28.0908928c0 .1161938-.0792141.23242-.23242.3222084l-17.1778813 9.8496456c-.0897884.0528412-.1320553.1215134-.1320553.1848946l.0792465-28.0856056c0-.0634165.0422668-.1320553.1320553-.1848974l17.1778812-9.8496437c.1531736-.0898202.2324201-.2060138.2324201-.3274947z" fill="#3db542"/></g></g></g><g><g><g><path d="m36.5149117 6.3879528-.0792122 28.0856075c0 .1161919-.0792465.2324181-.2324219.3222084l-18.2924233 10.4993782.0792141-28.0856056 18.2924252-10.4993801c.1532059-.0897889.2324181-.2060146.2324181-.3222084z" fill="#5ec363"/></g></g></g><g><g><g><path d="m17.3297901 17.2095413-.0739269 28.0856056-6.3915167-3.6922722c-.0950766-.0528412-.1373434-.1214828-.1373434-.190155l.0792465-28.0750618c0 .0633841.0475216.1320562.1373425.1796103z" fill="#72d561"/></g></g><g><g><path d="m16.6773129 44.2899971-5.3686323-3.1012497.0005159-.1222534.0750551-26.6241913 5.3634748 3.1017628zm-4.9451256-3.3447266 4.5247135 2.6137772.0678349-25.7715054-4.5200729-2.6137743z" fill="#5ec363"/></g></g></g><g><g><g><path d="m17.9907837 17.2084999-.0781269 28.0858192c-.1809292.1051445-.4767494.1051445-.6588631 0l.0781269-28.0858192c.1821137.1051426.4779339.1051445.6588631 0z" fill="#72d561"/></g></g></g><g><g><g><path d="m36.2789497 6.0586143c.3102722.1791363.3152618.4692645.0036659.6503448l-18.291832 10.4995403c-.1809292.1051445-.4767494.1051426-.6588631 0l-6.3909349-3.6898079c-.1821136-.1051435-.1830778-.2764902-.0021477-.3816347l18.2918311-10.4995405c.3115959-.1810803.8091145-.1810861 1.1227551-.0000052.3102741.1791363.3118896.4673169.0002918.6483972l-17.1760759 9.8511347c-.1809292.1051455-.1766253.2745514.0054941.3796978l4.1448326 2.3930197c.1821136.1051435.4745884.1070833.6555176.0019388l17.1760769-9.8511353c.3115959-.1810803.8091125-.181086 1.1193885-.0019497z" fill="#78e75a"/></g></g></g></g><g><g><g><path d="m33.5198975 7.0112519-15.5351162 8.8988495c-.1795769.1056519-.4753819.1056519-.6549911 0l-3.9246931-2.2660646 15.9207087-9.0626297z" fill="#f3f1fc"/></g></g></g></g><g><g><g><path d="m33.1412773 12.9583254.0024338.8587751-11.8592205 6.8469258-.0024357-.8587761z" fill="#ecf0f1"/></g></g></g><g><g><g><path d="m34.2732697 15.0380421.0024337.8587761-14.1232071 8.1540374-.0024337-.8587741z" fill="#ecf0f1"/></g></g></g><g><g><g><g><path d="m22.7281399 12.7970667c-.2067451.1198578-.3355827.3775339-.3385811.7400904v.7011194l-3.8022823 2.2082567.0030003-.7011185c0-.3625574.1288376-.6172333.3355808-.7400913z" fill="#ffd06c"/></g></g></g><g><g><g><path d="m24.7775841 24.0900478-1.8332558-.404707-1.9690247 2.6129646c-.3625374-1.8996315-.2516766-3.3857937-.122839-5.1056557.0898838-1.1535606.1589966-2.424778.1230431-4.0217819.0029984-.7970219-.5651722-1.7681599-1.260313-2.169651-.3505592-.2007637-.6365223-.256568-.8642426-.1247311l3.8022804-2.2082577c.2277203-.1318369.5453243-.1138601.8958836.0869036.6921406.4014921 1.2584419 1.3752832 1.2554436 2.1752844.0359535 1.597023-.0629292 2.9004154-.1498146 4.0509777-.1288376 1.7228605-.2396984 3.2090226.122839 5.1086541z" fill="#ffd06c"/></g></g></g><g><g><g><path d="m19.7465191 14.9644175c.6944275.4009275 1.2588425 1.3763266 1.2565804 2.1742754.0357113 1.5971127-.0618763 2.9014893-.149456 4.0531139-.1294289 1.7219467-.2409458 3.207634.1215687 5.1079254l-.1033916-.0288754c-.3681965-1.9233761-.254734-3.4189548-.1233597-5.1507912.0875626-1.1472282.1851406-2.4471989.1475048-4.0410252.0020752-.7319984-.5127544-1.6259232-1.1497898-1.9937153-.6351242-.3666897-1.155241-.0702906-1.1573105.6595087l-.0019875.70123-.1052151-.0607471.0019875-.7012291c.002262-.7979496.5684413-1.1205977 1.2628688-.7196701z" fill="#febc1f"/></g></g></g></g><g><g><path d="m20.4669476 15.7937622-1.986124 1.1356602-.0845337-1.2518864 1.2360573-.649704c.3106727.1391697.6386279.4394179.8346004.7659302z" fill="#78e75a"/></g></g></g><g><g><g enable-background="new"><g><g><g><path d="m37.3160973 15.028204-.0662804 23.494524c0 .0971794-.0662498.1943893-.1943893.2694855l-14.3671513 8.2379951c-.0750961.0441971-.1104469.1016312-.1104469.154644l.0662785-23.490099c0-.0530396.0353508-.1104488.1104488-.154644l14.3671513-8.2379971c.1281089-.0751237.1943893-.172305.1943893-.2739085z" fill="#df3260"/></g></g></g><g><g><g><path d="m42.2729988 17.8954334-.0662537 23.490099c0 .0971832-.0662804.1943893-.1943893.2694893l-15.2993298 8.7814178.0662537-23.490099 15.2993259-8.7814217c.1281395-.075096.1943932-.1723041.1943932-.2694854z" fill="#df3260"/></g></g></g><g><g><g><path d="m26.2270393 26.9463406-.0618305 23.490099-5.345705-3.0881233c-.0795212-.0441971-.114872-.1016045-.114872-.1590385l.0662804-23.4812851c0 .0530128.0397453.1104488.1148701.1502209z" fill="#e93565"/></g></g><g><g><path d="m25.681324 49.5957565-4.4901905-2.5938034.0004311-.102253.0627747-22.2678089 4.4858761 2.5942364zm-4.1359806-2.7974434 3.784359 2.1860962.0567341-21.5546436-3.7804756-2.1860962z" fill="#df3260"/></g></g></g><g><g><g><path d="m26.7798767 26.9454689-.0653419 23.4902802c-.1513252.0879402-.3987427.0879402-.5510578 0l.0653439-23.4902802c.152315.0879383.3997306.0879402.5510558 0z" fill="#e93565"/></g></g></g><g><g><g><path d="m42.0756416 17.6199818c.2595062.149826.2636795.3924809.003067.543932l-15.2988319 8.7815552c-.1513252.0879402-.3987408.0879383-.5510559 0l-5.3452187-3.0860634c-.1523151-.0879402-.1531219-.2312489-.0017967-.319191l15.2988319-8.7815533c.2606125-.1514511.6767235-.1514559.939045-.0000048.2595062.1498251.2608566.390852.0002441.5423031l-14.3656425 8.2392435c-.1513252.0879421-.1477242.2296276.0045948.3175697l3.4666348 2.0014629c.1523151.0879383.3969345.0895615.5482597.0016212l14.3656425-8.2392445c.2606125-.151451.6767235-.1514548.9362259-.0016306z" fill="#f45170"/></g></g></g></g><g><g><g><path d="m39.7680397 18.4167442-12.9931831 7.4427758c-.1501942.0883636-.3975964.0883636-.5478172 0l-3.2825146-1.8952789 13.3156834-7.5797577z" fill="#f3f1fc"/></g></g></g></g><g><g><g><g><path d="m30.7420845 23.2558556c-.1729164.1002464-.280674.3157597-.2831821.6189938v.5863991l-3.1801319 1.8469315.0025082-.5863991c0-.3032341.1077576-.5162392.2806721-.6189938z" fill="#ffde9b"/></g></g></g><g><g><g><path d="m32.4561882 32.7010231-1.533289-.3384857-1.646843 2.1854172c-.3032188-1.5888023-.2104969-2.8317928-.1027393-4.2702427.0751762-.9648094.1191998-2.0549145.0891285-3.3906097.0025082-.6666088-.4330158-1.4642029-1.0144119-1.7999992-.2931995-.1679153-.5582733-.2023373-.7487335-.0920734l3.1801338-1.8469315c.1904583-.1102638.4560966-.0952282.7492962.0726852.5788879.3357964 1.0525284 1.1502514 1.0500183 1.8193531.0300713 1.3357105-.0526314 2.4258347-.1252975 3.3881359-.1077576 1.440958-.2004814 2.6839466.1027374 4.2727508z" fill="#ffde9b"/></g></g></g><g><g><g><path d="m28.2483311 25.068573c.580801.3353271 1.052866 1.1511269 1.0509739 1.818512.0298672 1.335783-.051754 2.426733-.1250019 3.3899212-.1082516 1.4401951-.2015209 2.6827869.101675 4.2721424l-.0864735-.0241508c-.3079491-1.6086655-.2130527-2.8595276-.1031742-4.3079929.0732346-.9595127.1548462-2.0467758.1233692-3.3798122.0017357-.6122246-.4288559-1.3598824-.9616547-1.6674938-.5312042-.3066902-.966217-.0587902-.967947.5515957l-.0016632.5864906-.0879993-.050806.0016632-.5864906c.0018921-.6673853.4754315-.9372408 1.0562325-.6019156z" fill="#febc1f"/></g></g></g></g><g><g><path d="m28.8508797 25.7622166-1.6611443.9498386-.0707016-1.0470467 1.0338058-.543396c.2598401.1163979.534134.3675175.6980401.6406041z" fill="#f45170"/></g></g></g></g><g><g enable-background="new"><g><g><path d="m40.374649 38.8309517c0 .9799805-.6799927 2.1699829-1.539978 2.6599731l-8.1400146 4.7000122c-.8599854.5-1.5499878.0999756-1.5499878-.8800049l-.0300293-8.6199951c-.0099487-.9899902.6800537-2.1799927 1.5400391-2.6799927l8.1400146-4.7000122c.8499756-.4899902 1.5499878-.0900269 1.5499878.8900146z" fill="#fa5f7f"/></g></g></g></g><g><g><g><path d="m30.3673019 37.7961769 8.7545777-5.0544624-.0025406-1.528513-8.7520371 5.0529995z" fill="#df3260"/></g></g></g><g><g><g><path d="m37.157856 35.1264877-4.2472534 2.4522095v5.769989l4.2472534-2.4521484z" fill="#df3260"/></g></g></g></g><g><path d="m29.9161015 40.8267136c-.8818092 0-1.6987934.3907509-2.2693844 1.0047302-.570591.6279449-.9337292 1.4651527-.9337292 2.4419479 0-1.8977203-1.4394188-3.4466782-3.2030354-3.4466782.8818092 0 1.685812-.3906708 2.2693844-1.0046501.5576096-.6139755.933651-1.493084.933651-2.4419479 0 .948864.3631382 1.8279724.9337292 2.4419479.5705909.6139794 1.3875751 1.0046502 2.2693844 1.0046502z" fill="#fff"/></g></g></svg>