<svg id="Layer_1" enable-background="new 0 0 53 53" height="20" viewBox="0 0 53 53" width="20" xmlns="http://www.w3.org/2000/svg"><g id="_x31_3"><g><g><g><path d="m30.6314964 12.3496132 3.427845 1.8004379c1.6378288.8602476 2.7124939 2.7935219 2.8407288 5.6015873.1761589 3.8574924-1.4696388 8.351902-4.0606728 11.7906189l-3.4278488-1.800436c2.5910339-3.4387169 4.2368355-7.9331264 4.0606766-11.7906189-.1282349-2.8080654-1.2028999-4.7413397-2.8407288-5.6015892z" fill="#57b3fe"/></g></g><g><g><g enable-background="new"><g><path d="m38.5999756 25.7682018 2.8300171 2.8800049-2.8200073 5.3900166-4-.6199951c-.460022.6300049-.9400024 1.2299805-1.4400024 1.7999878l-3.4299927-1.7999878-.3300171-3.6799946 3.4299927 1.7999878c2.5900269-3.4299927 4.2400513-7.9299927 4.0599976-11.789978-.2599487-5.6500244-4.3499756-7.7600098-9.1499634-4.7000122-4.7999878 3.0499878-8.4799805 10.0999756-8.2200317 15.75.0800171 1.829958.5700073 3.2699604 1.3500366 4.2999897.0299683 0 .0599976.0100098.0999756.0100098l3.4199829 1.7999878.0200195 3.8699951c-.5299683.0800171-1.0299683.1099854-1.5200195.0800171l-3.7199707 5.539978-3.1300049-1.6099854-3.4299927-1.7999878 2.4000244-6.1900024-2.5300293 1.0299683-3.4299927-1.7999878-.2299805-4.9600239 4.5299683-3.9499512c.210022-1.3600464.5599976-2.75 1.039978-4.1300049l-2.8199463-2.8900146 2.8099976-5.4000244 4 .6300049c.8599854-1.1699829 1.7999878-2.2600098 2.7999878-3.2299805l.6400146-5.9500122 4.1999512-2.6699829 3.4300537 1.7999878.6099854 2.6099854h.0199585l3.7300415-5.539978 3.1300049 1.6099854 3.4299927 1.7999878-2.4000244 6.1900024 2.5300293-1.0199585 3.4299927 1.7999878.2299805 4.9500122-4.5299683 3.9499512c-.2100221 1.3700559-.5700075 2.7600095-1.0400392 4.1400144z" fill="#497bfe"/></g><g><path d="m32.5100098 43.7782135c.0100098.0800171.0100098.1599731.0199585.2399902.1000366 2.1699829-1.3199463 4.9100342-3.1799927 6.0900269-.9500122.6099854-1.8299561.6799927-2.4699707.3299561l-3.4000244-1.7799683c-.6900024-.3599854-1.1099854-1.2000122-1.1099854-2.4199829l-.0499878-15.5100117-1.2000122-.6400146c-1.0200195-.5299683-1.6900024-1.7299805-1.7700195-3.4799805-.0999756-2.1000366.6799927-4.5100098 1.960022-6.5100098l3.4299927 1.7999878.1099854 2.4799805 3.0900269-4.5-.1799927-3.8899536c.2399901.0499878.4599608.1300048.659973.2399902l3.4299927 1.7999878c-.0199585-.0100098-.039978-.0100098-.0700073-.0200195 1.0599976.5200195 1.7600098 1.7200317 1.8400269 3.5100098.1099854 2.3699951-.8900146 5.1199951-2.4700317 7.25z" fill="#b0b8cf"/></g><g><g><path d="m33.1667099 35.2140808-3.4278469-1.8004379-.3273144-3.6718216 3.4278488 1.800436z" fill="#497bfe"/></g></g><g><g><path d="m39.3176727 14.5962963-3.427845-1.800437 4.622078-1.8689975 3.427845 1.800436z" fill="#497bfe"/></g></g><g><g><path d="m22.3643074 36.4021606-3.4278507-1.8004341c.6091137.3199234 1.2959652.4911118 2.0406284.5035629l3.4278469 1.8004379c-.7446632-.0124511-1.4315166-.1836394-2.0406246-.5035667z" fill="#57b3fe"/></g></g><g><g><path d="m37.2442093 4.1495724-3.427845-1.800436 3.1371612 1.6118965 3.427845 1.8004365z" fill="#57b3fe"/></g></g><g><g><path d="m16.0510921 44.7836876-3.4278469-1.8004341 2.4036732-6.20998 3.4278469 1.8004341z" fill="#497bfe"/></g></g><g><g><path d="m33.5214348 9.6893349-3.427845-1.8004361 3.7227745-5.5397624 3.427845 1.800436z" fill="#497bfe"/></g></g><g><g><g><path d="m27.763958 48.4873428-3.4278488-1.8004303c.3949566.2074394.9267483.1538696 1.5008736-.211216l3.4278469 1.8004379c-.5741273.3650857-1.1059189.4186517-1.5008717.2112084z" fill="#f8f9fe"/></g></g><g><g><path d="m27.1136837 41.3880424 3.4278469 1.8004379c.3909149.2053223.6479626.665802.6784039 1.3324165.0614014 1.3445473-.8156185 3.0306358-1.9551048 3.7552376l-3.4278469-1.8004379c1.1394863-.7245979 2.0165062-2.4106865 1.9551048-3.7552376-.0304413-.6666106-.287489-1.1270904-.6784039-1.3324165z" fill="#e9e7fc"/></g></g><g><g><path d="m31.2198467 44.5196571-3.4287834-1.7994232c-.0285797-.6673355-.285902-1.1258163-.6780453-1.3318748l3.4287815 1.7994232c.3921433.2060623.6466237.6676025.6780472 1.3318748z" fill="#f8f9fe"/></g></g><g><g><path d="m26.9067936 50.4560852-3.4278469-1.8004341c-.683939-.3592339-1.1131763-1.2001305-1.1058521-2.4153748l3.427845 1.8004379c-.0073224 1.2152444.4219131 2.0561371 1.105854 2.415371z" fill="#c9cee2"/></g></g><g><g><path d="m25.8009396 48.0407143-3.427845-1.800438-.0522118-15.8336372 3.4278469 1.8004341z" fill="#c9cee2"/></g></g><g><g><path d="m28.2569599 26.2060261-3.4278469-1.800436 3.1135426-4.5232411 3.4278469 1.800436z" fill="#c9cee2"/></g></g><g><g><path d="m28.4243011 16.2300968 3.4278431 1.8004398c-.2062054-.1083126-.4267044-.1893749-.6594906-.2422543l-3.4278488-1.8004322c.2327881.0528756.4532872.1339379.6594963.2422467z" fill="#c9cee2"/></g></g><g><g><path d="m31.3705025 21.682785-3.4278469-1.800436-.1778489-3.8945017 3.427847 1.8004351z" fill="#e3e7f0"/></g></g><g><g><path d="m24.9139996 25.7884712-3.427847-1.800436 3.3429604.4175549 3.4278469 1.800436z" fill="#e3e7f0"/></g></g><g><g><path d="m24.543911 31.8931198-3.4278469-1.8004341c-1.0175591-.5344639-1.6860542-1.731163-1.7659817-3.4813805-.0961781-2.1060658.6814404-4.5125542 1.9582214-6.5177708l3.427845 1.8004398c-1.2767792 2.0052128-2.0543976 4.4117012-1.9582195 6.517767.0799255 1.7502175.7484226 2.9469166 1.7659817 3.4813786z" fill="#e3e7f0"/></g></g><g><g><path d="m33.6206665 21.5168476c.1082993 2.3714809-.895031 5.12076-2.4662704 7.2527657l1.3542175 15.0056973c.0075836.0824814.0150414.1628227.0188141.2454872.0990601 2.1691551-1.3135586 4.9033051-3.1788425 6.0894394-1.9391842 1.2331276-3.5618267.2835846-3.5476456-2.0695229l-.0522099-15.8336411c-1.6736355-.0685921-2.8625031-1.4238529-2.9708004-3.795332-.0961781-2.1060658.6814404-4.5125542 1.9582214-6.5177708l.1778488 3.8945007 3.3429604.4175549 3.1135426-4.523241-.1778488-3.8945026c1.3826675.3140755 2.3318367 1.6225014 2.4280128 3.7285652zm-4.3558369 26.7592869c1.1394863-.7246017 2.0165062-2.4106903 1.9551048-3.7552376-.061203-1.340229-1.0383759-1.8472404-2.1778622-1.1226387-1.1431942.7269554-2.0183907 2.4118843-1.9571877 3.7521133.0614015 1.3445511 1.036749 1.8527184 2.1799451 1.125763" fill="#b0b8cf"/></g></g></g><g><g><path d="m18.4547653 38.5737076-3.4278469-1.8004341c-.566659-.7143021-1.0247211-1.5894623-1.3454151-2.6191711l3.4278469 1.8004341c.320694 1.0297126.7787552 1.904869 1.3454151 2.6191711z" fill="#6bb4f9"/></g></g><g><g><path d="m30.5909977 10.1065016-3.4278507-1.8004332c1.032011-.3316059 2.0158596-.4691839 2.9304428-.4171696l3.427845 1.8004389c-.9145813-.0520172-1.8984318.0855608-2.9304371.4171639z" fill="#6bb4f9"/></g></g><g><g><path d="m16.7882309 28.9227562-3.4278479-1.8004322c.2112036-1.3679466.5620546-2.7574921 1.0370159-4.134161l3.4278421 1.8004398c-.4749564 1.3766651-.8258094 2.7662106-1.0370101 4.1341534z" fill="#6bb4f9"/></g></g><g><g><path d="m21.8199558 17.1302986-3.427845-1.8004341c.8604012-1.1762333 1.7989025-2.2655716 2.8020935-3.2281485l3.4278431 1.8004379c-1.0031872.962575-1.9416904 2.0519133-2.8020916 3.2281447z" fill="#6bb4f9"/></g></g><g><g><path d="m12.2592869 32.8728867-3.427846-1.8004361 4.528944-3.9501304 3.427846 1.800436z" fill="#497bfe"/></g></g><g><g><path d="m12.4854202 37.8247147-3.4278459-1.800438-.2261334-4.9518261 3.427846 1.8004361z" fill="#57b3fe"/></g></g><g><g><path d="m25.2587299 7.9516315-3.4278469-1.8004365 4.2033806-2.6729266 3.427845 1.8004362z" fill="#57b3fe"/></g></g><g><g><path d="m17.8252449 24.7886009-3.427846-1.8004379-2.8192815-2.8909226 3.4278459 1.8004361z" fill="#497bfe"/></g></g><g><g><path d="m17.817461 16.5030327-3.4278469-1.800437 4.0024967.6272678 3.427845 1.8004351z" fill="#497bfe"/></g></g><g><g><path d="m15.0059633 21.8976765-3.4278459-1.8004361 2.8114967-5.3946447 3.4278469 1.800437z" fill="#57b3fe"/></g></g><g><g><path d="m29.4621086 5.2787046 1.1288891 4.8277969c1.0320053-.3316031 2.0158558-.4691811 2.9304371-.4171667l3.7227745-5.5397625 3.1371613 1.611897-2.4112358 6.2102962c.5684853.7131395 1.0268478 1.5948191 1.347538 2.6245308l4.6220779-1.8689985.2261314 4.951827-4.5270882 3.9489517c-.2112007 1.3679428-.5655365 2.7641678-1.0386429 4.1396866l2.8263474 2.8797188-2.817234 5.3937969-4.0040512-.6195946c-.4561195.6236496-.9379539 1.2255745-1.4385033 1.7923965l-.3273125-3.6718235c2.5910339-3.4387169 4.2368317-7.9331264 4.0606728-11.7906189-.2581253-5.6524134-4.3510513-7.7603035-9.1528034-4.7068701-4.7980728 3.0510912-8.4802685 10.1031752-8.2221413 15.7555895.1761589 3.8574944 2.1353645 6.0594826 4.8798065 6.1053696l.0115185 3.8726349c-.5226078.0838089-1.0269871.1090164-1.5127163.0842857l-3.7212181 5.5320892-3.131424-1.6110497 2.4036732-6.20998c-.5666599-.7143021-1.0247211-1.5894585-1.3454151-2.6191711l-4.62393 1.8701782-.2261333-4.951828 4.528944-3.9501305c.2112007-1.3679428.5620537-2.7574883 1.037014-4.1341553l-2.8192816-2.8909245 2.8114977-5.3946438 4.0024948.6272659c.8604012-1.1762314 1.7989044-2.2655697 2.8020954-3.2281466l.6366787-5.9505205z" fill="#5094ff"/></g></g></g></g><g><path d="m19.0344048 25.1396561c-.4905739.2026176-.9320507.4938679-1.3006496.8954506-.3470249.3780785-.6221466.8436737-.7582893 1.3716106-.0612373.1615124-.2651901.170248-.3398743.014555-.3835354-1.0049305-1.2339964-1.7855377-2.2680378-2.0817528-.1605415-.0385609-.1702414-.2650528-.0135841-.3171978.5133924-.2034569.9537621-.5173779 1.300787-.8954563.3695698-.3789043.6437149-.8673153.7809715-1.3724422.0601292-.1841831.264082-.1929188.3398743-.0145569.1798038.4915504.4947014.9547348.8727741 1.3016205.4006157.3460598.8663502.6211758 1.3724422.7809715.1832198.03759.1929187.2640819.013586.3171978z" fill="#fff"/></g></g></g><g><g><path d="m24.6220512 13.9021521-3.4278469-1.8004361.6366787-5.950521 3.4278469 1.8004365z" fill="#497bfe"/></g></g></g></svg>