<svg id="Capa_1" enable-background="new 0 0 20 20" viewBox="0 0 20 20" xmlns="http://www.w3.org/2000/svg" xmlns:xlink="http://www.w3.org/1999/xlink"><linearGradient id="lg1"><stop offset="0" stop-color="#2f878a"/><stop offset="1" stop-color="#9bf0df"/></linearGradient><linearGradient id="SVGID_1_" gradientUnits="userSpaceOnUse" x1="381.773" x2="490.214" xlink:href="#lg1" y1="102.068" y2="-12.678"/><linearGradient id="SVGID_00000080175372776851917280000007767935097808437684_" gradientUnits="userSpaceOnUse" x1="346.786" x2="455.186" xlink:href="#lg1" y1="109.827" y2="1.427"/><linearGradient id="SVGID_00000079443626381741345950000002055311487999244973_" gradientUnits="userSpaceOnUse" x1="297.068" x2="407.884" xlink:href="#lg1" y1="191.37" y2="40.925"/><linearGradient id="lg2"><stop offset="0" stop-color="#d7d1eb"/><stop offset="1" stop-color="#f2effa"/></linearGradient><linearGradient id="SVGID_00000152972152481094157120000006684835839462793387_" gradientUnits="userSpaceOnUse" x1="246.797" x2="246.797" xlink:href="#lg2" y1="362.856" y2="544.396"/><linearGradient id="SVGID_00000093178161927200402650000002575058304301333910_" gradientUnits="userSpaceOnUse" x1="194.217" x2="126.605" y1="195.68" y2="463.088"><stop offset="0" stop-color="#7662bd"/><stop offset="1" stop-color="#7662bd" stop-opacity="0"/></linearGradient><linearGradient id="SVGID_00000136390732789282355820000008725954183980117942_" gradientUnits="userSpaceOnUse" x1="301.19" x2="356.725" xlink:href="#lg2" y1="218.701" y2="436.631"/><linearGradient id="SVGID_00000131325297984297740470000000351895356649660566_" gradientUnits="userSpaceOnUse" x1="108.97" x2="273.327" y1="362.165" y2="77.491"><stop offset="0" stop-color="#1a4c4e"/><stop offset=".4259" stop-color="#1b4f51"/><stop offset=".7524" stop-color="#1e585b"/><stop offset="1" stop-color="#236568"/></linearGradient><linearGradient id="SVGID_00000157294736632776429790000011285889822649252518_" gradientUnits="userSpaceOnUse" x1="283.821" x2="192.791" xlink:href="#lg1" y1="87.888" y2="7.991"/><linearGradient id="SVGID_00000030463785518272047840000015837556464737419951_" gradientUnits="userSpaceOnUse" x1="352.508" x2="194.546" xlink:href="#lg1" y1="128.139" y2="-7.679"/><linearGradient id="SVGID_00000125565101825128480930000004461309982693177271_" gradientUnits="userSpaceOnUse" x1="353.315" x2="264.444" xlink:href="#lg1" y1="152.33" y2="47.542"/><g><g><path d="m455.189 11.118s-3.047 84.169-63.414 116.526c-47.262 25.333-65.379-10.429-65.379-10.429z" fill="url(#SVGID_1_)"/><path d="m369.018 132.33c-28.882 9.608-56.449-18.224-46.306-46.922 3.537-10.008 9.53-20.701 19.241-31.386 38.207-42.036 113.236-42.904 113.236-42.904s-10.156 95.924-86.171 121.212z" fill="url(#SVGID_00000080175372776851917280000007767935097808437684_)"/><path d="m438.625 22.692s-45.691 30.695-76.645 64.021c-25.163 27.091-38.355 43.464-40.734 49.986-.343.941.039 1.986.902 2.494 1.047.617 2.396.213 2.924-.881 3.644-7.556 22.575-30.376 46.213-53.68 29.075-28.664 67.34-61.94 67.34-61.94z" fill="url(#SVGID_00000079443626381741345950000002055311487999244973_)"/></g><path d="m84.985 202.748v202.511c0 6.77 2.309 11.487 5.933 13.407l-.001.003 160.024 92.366 157.667-296.881z" fill="url(#SVGID_00000152972152481094157120000006684835839462793387_)"/><path d="m84.985 202.748v189.983l112.89 8.802c16.446 1.282 32.893-2.48 47.146-10.785l52.954-180.493z" fill="url(#SVGID_00000093178161927200402650000002575058304301333910_)"/><path d="m427.015 209.926-90.996-22.719-90.996 107.913v202.51c0 12.079 7.344 17.631 16.403 12.4l149.187-86.133c9.059-5.23 16.403-19.262 16.403-31.341v-182.63z" fill="url(#SVGID_00000136390732789282355820000008725954183980117942_)"/><path d="m351.575 131.793-160.615-92.756-.015.029c-9.036-5.139-22.663 3.232-31.226 19.595l-102.747 196.316c-8.982 17.162-8.982 36.577 0 43.368.714.539 1.473.949 2.251 1.299l157.786 91.103z" fill="url(#SVGID_00000131325297984297740470000000351895356649660566_)"/><g><path d="m438.765 271.699c-5.886 3.398-11.772 3.803-16.263.407l-86.483-65.379-86.484 165.242c-8.981 17.162-23.545 25.568-32.526 18.779-8.982-6.79-8.982-26.206 0-43.368l102.747-196.316c8.98-17.161 23.544-25.569 32.526-18.779l102.746 77.674c8.982 6.79 8.982 26.206 0 43.368-4.491 8.581-10.377 14.973-16.263 18.372z" fill="#2f878a"/></g><g fill="#1a4c4e"><path d="m328.914 282.956-34.705 20.036v46.273l34.705-20.037z"/><path d="m294.209 368.211v46.272l34.705-20.037v-46.272z"/><path d="m343.123 386.243 34.704-20.037v-46.272l-34.704 20.036z"/><path d="m343.123 274.752v46.272l34.704-20.036v-46.273z"/></g><g><path d="m194.957.22s-2.93 46.328 44.021 93.099c29.834 29.72 54.01 39.333 72.603 41.789 19.227 2.539 38.911-13.374 40.548-32.699z" fill="url(#SVGID_00000157294736632776429790000011285889822649252518_)"/><path d="m305.275 129.546c29.952 9.814 57.434-20.687 44.09-49.241-6.286-13.452-15.93-27.473-30.672-39.911-54.302-45.816-123.736-40.174-123.736-40.174s-4.052 42.036 48.113 92.175c20.272 19.485 42.546 30.709 62.205 37.151z" fill="url(#SVGID_00000030463785518272047840000015837556464737419951_)"/><path d="m346.891 126.892c.904-.917.891-2.39-.03-3.29-13.476-13.151-34.065-32.256-50.468-46.886-29.274-26.11-81.027-65.909-81.027-65.909s46.576 42.202 81.314 73.979c16.144 14.769 34.531 30.905 47.006 42.201.92.835 2.332.791 3.205-.095z" fill="url(#SVGID_00000125565101825128480930000004461309982693177271_)"/></g></g><g/><g/><g/><g/><g/><g/><g/><g/><g/><g/><g/><g/><g/><g/><g/></svg>